#!OML:ASF F:\VICON\USERDATA\INSTALL\Justin_Nancy\Justin_Nancy.ASF
:FULLY-SPECIFIED
:DEGREES
162
root 0.638465 17.061 5.24139 -0.165319 -5.87026 -5.51521
lowerback 5.28269 1.75286 4.48448
upperback 0.34758 2.69386 3.52253
thorax -2.56856 1.3073 0.920991
lowerneck -16.3792 -3.38602 -9.29219
upperneck 21.5726 -3.39151 4.80268
head 9.79976 -1.79528 2.77962
rclavicle -7.00716e-015 1.59028e-015
rhumerus -20.6213 -1.62201 -79.1294
rradius 41.1825
rwrist 0.325651
rhand -15.4896 13.7944
rfingers 7.12502
rthumb 10.6925 -15.9136
lclavicle -7.00716e-015 1.59028e-015
lhumerus -39.0504 9.88892 85.2852
lradius 22.2504
lwrist -12.1912
lhand -12.3715 26.737
lfingers 7.12502
lthumb 13.699 56.2661
rfemur 11.1465 6.97763 32.2461
rtibia 17.1227
rfoot -17.8783 -6.87057
rtoes -7.46042
lfemur -32.8693 -4.9281 -12.4629
ltibia 24.6423
lfoot -9.33607 12.894
ltoes -4.22257
163
root 0.634829 17.0342 5.47536 0.123155 -6.09712 -5.72353
lowerback 5.0545 1.8585 4.64329
upperback 0.31326 2.82953 3.54771
thorax -2.46772 1.37451 0.856752
lowerneck -16.3729 -3.38816 -9.34937
upperneck 21.3195 -3.39935 4.91001
head 9.71232 -1.78795 2.8229
rclavicle 9.86469e-015 1.51076e-014
rhumerus -20.1957 -1.43023 -78.9979
rradius 41.6776
rwrist 0.37046
rhand -15.5268 13.7216
rfingers 7.12502
rthumb 10.6566 -15.9882
lclavicle 9.86469e-015 1.51076e-014
lhumerus -39.411 10.3584 85.0719
lradius 22.0487
lwrist -12.128
lhand -12.962 26.1457
lfingers 7.12502
lthumb 13.1298 55.7123
rfemur 12.059 6.99524 32.4477
rtibia 16.476
rfoot -17.7461 -6.84802
rtoes -8.25455
lfemur -33.3651 -5.89569 -11.5164
ltibia 23.0565
lfoot -9.73184 13.7476
ltoes -4.79546
164
root 0.634698 17.0073 5.71113 0.436975 -6.31553 -5.68606
lowerback 4.73071 1.95048 4.57706
upperback 0.298914 2.92425 3.49798
thorax -2.29983 1.42503 0.847688
lowerneck -16.4964 -3.38229 -9.31136
upperneck 21.1767 -3.37887 4.88416
head 9.68205 -1.77467 2.80758
rclavicle -7.65321e-015 2.38542e-015
rhumerus -19.8359 -1.15526 -78.8817
rradius 42.2312
rwrist 0.285427
rhand -15.8102 14.0119
rfingers 7.12502
rthumb 10.3833 -15.7117
lclavicle -7.65321e-015 2.38542e-015
lhumerus -39.7598 10.881 84.8177
lradius 22.0139
lwrist -12.1636
lhand -12.5428 26.487
lfingers 7.12502
lthumb 13.5339 56.0272
rfemur 12.9298 7.01912 32.2999
rtibia 15.9401
rfoot -17.7154 -6.69578
rtoes -9.25823
lfemur -33.9103 -6.59566 -11.0082
ltibia 21.9276
lfoot -10.385 14.423
ltoes -5.53615
165
root 0.635635 16.9665 5.94932 0.545422 -6.5935 -5.58785
lowerback 4.55039 2.06188 4.46417
upperback 0.368841 3.04727 3.39167
thorax -2.12422 1.49055 0.801776
lowerneck -16.4058 -3.39443 -9.05311
upperneck 20.8095 -3.44074 4.7817
head 9.5334 -1.79028 2.71637
rclavicle -3.52594e-014 -3.57812e-014
rhumerus -19.5085 -1.16127 -78.8791
rradius 42.7535
rwrist 0.284643
rhand -16.3767 14.701
rfingers 7.12502
rthumb 9.83674 -15.0492
lclavicle -3.52594e-014 -3.57812e-014
lhumerus -39.7413 11.4464 84.4206
lradius 21.4275
lwrist -12.2978
lhand -12.1485 26.9035
lfingers 7.12502
lthumb 13.9139 56.418
rfemur 13.8885 7.11344 32.1125
rtibia 15.8016
rfoot -17.7575 -6.58722
rtoes -11.8214
lfemur -34.06 -6.89683 -10.8609
ltibia 21.0728
lfoot -11.1105 15.0516
ltoes -6.79916
166
root 0.637401 16.9342 6.1809 0.543832 -6.78344 -5.50384
lowerback 4.69756 2.18103 4.40403
upperback 0.384415 3.20998 3.29149
thorax -2.18522 1.57084 0.716554
lowerneck -16.4636 -3.44717 -9.02536
upperneck 20.6803 -3.54654 4.92284
head 9.50839 -1.81913 2.74528
rclavicle -1.13059e-014 7.55382e-015
rhumerus -19.32 -1.31666 -78.7972
rradius 43.2394
rwrist 0.518371
rhand -16.6648 14.7839
rfingers 7.12502
rthumb 9.55879 -14.9793
lclavicle -1.13059e-014 7.55382e-015
lhumerus -39.627 11.961 84.0696
lradius 20.6266
lwrist -12.7268
lhand -12.2038 26.9482
lfingers 7.12502
lthumb 13.8606 56.4663
rfemur 14.7116 7.21515 31.9818
rtibia 15.9915
rfoot -17.5467 -6.16946
rtoes -12.3043
lfemur -33.9951 -6.36516 -11.1836
ltibia 20.5693
lfoot -11.7128 14.881
ltoes -8.543
